Coordinates
version=1
nRows=17
nColumns=23
inDegrees=yes

Units are S.I. units (second, meters, Newtons, ...)
If the header above contains a line with 'inDegrees', this indicates whether rotational values are in degrees (yes) or radians (no).

endheader
time	pelvis_tilt	pelvis_list	pelvis_rotation	pelvis_tx	pelvis_ty	pelvis_tz	hip_flexion_r	hip_adduction_r	hip_rotation_r	knee_angle_r	knee_angle_r_beta	ankle_angle_r	subtalar_angle_r	mtp_angle_r	hip_flexion_l	hip_adduction_l	hip_rotation_l	knee_angle_l	knee_angle_l_beta	ankle_angle_l	subtalar_angle_l	mtp_angle_l
      0.00000000	    -14.42166952	     -2.40364221	     -2.74206122	      2.35757588	      0.94020854	      0.97293710	     43.42812314	      4.43469890	     -7.24157443	     21.47367108	      0.37478626	     -3.70136163	     -0.37655021	      0.00000000	    -19.09366744	      0.66277988	      0.91591842	     32.95286637	      0.57513602	    -21.32344826	     -1.06971015	      0.00000000
      0.00666667	    -14.08114607	     -2.66219369	     -3.20735086	      2.35833880	      0.93881661	      0.97328450	     42.04827753	      5.16820126	     -7.69656095	     19.05116325	      0.33250553	     -4.61812020	      0.90130086	      0.00000000	    -18.22430663	      0.44130725	     -0.17454309	     37.56690340	      0.65566615	    -22.80554663	     -1.18470308	      0.00000000
      0.01333333	    -13.86496857	     -2.89380601	     -3.63419625	      2.35894621	      0.93687983	      0.97359335	     40.89035768	      5.86983678	     -8.03361728	     16.93827606	      0.29562869	     -5.46991931	      1.96560750	      0.00000000	    -17.31654319	      0.28230538	     -0.94190522	     42.02225861	      0.73342677	    -24.33498406	     -1.38333883	      0.00000000
      0.02000000	    -13.48474083	     -3.28524717	     -4.10069589	      2.35945235	      0.93482648	      0.97401231	     39.54605200	      6.79141558	     -8.03470523	     15.08599088	      0.26330021	     -6.33388431	      2.28633564	      0.00000000	    -16.61298637	     -0.13148406	     -1.96638469	     46.38495719	      0.80957023	    -25.59458881	     -0.99703112	      0.00000000
      0.02666667	    -13.24960093	     -3.55568313	     -4.58012004	      2.35968094	      0.93221988	      0.97435485	     38.65958203	      7.50636165	     -8.16571335	     14.25539562	      0.24880359	     -6.74049360	      2.52508349	      0.00000000	    -15.72905735	     -0.34514179	     -2.68642745	     50.64205977	      0.88387068	    -27.21617981	     -1.39956026	      0.00000000
      0.03333333	    -12.88568826	     -3.96782242	     -5.11502032	      2.35963941	      0.92948578	      0.97480413	     37.74785829	      8.35125990	     -8.18494101	     14.13531245	      0.24670774	     -7.11708938	      1.97166425	      0.00000000	    -14.91436937	     -0.78505335	     -3.59581468	     54.88816781	      0.95797925	    -28.64021148	     -1.89732424	      0.00000000
      0.04000000	    -12.57047072	     -4.36943499	     -5.71357524	      2.35921611	      0.92646040	      0.97529889	     37.06221171	      9.20931713	     -7.83358377	     14.87641135	      0.25964236	     -7.22808763	      0.41042932	      0.00000000	    -13.94368657	     -1.23843066	     -4.50593637	     59.11816181	      1.03180657	    -30.05684932	     -2.79360306	      0.00000000
      0.04666667	    -12.14600139	     -4.96225185	     -6.34350383	      2.35856015	      0.92325926	      0.97586607	     36.51203683	     10.11533357	     -7.93706189	     16.72419477	      0.29189226	     -6.71203702	     -0.98044804	      0.00000000	    -13.02579257	     -1.96754971	     -5.50691094	     63.32897836	      1.10529918	    -31.21164469	     -3.75749669	      0.00000000
      0.05333333	    -12.07478867	     -5.13537873	     -6.92457839	      2.35720945	      0.91944399	      0.97629312	     36.60070296	     10.59463195	     -7.63850101	     19.50836408	      0.34048518	     -5.67162648	     -2.95435382	      0.00000000	    -11.45390041	     -2.40451394	     -6.36442087	     67.61432533	      1.18009260	    -32.15146973	     -5.28998356	      0.00000000
      0.06000000	    -11.85811521	     -5.41106723	     -7.46774146	      2.35569144	      0.91557891	      0.97671347	     36.59376271	     11.12060863	     -7.30801306	     22.90002295	      0.39968080	     -4.06686744	     -5.04427789	      0.00000000	     -9.96704734	     -3.00970954	     -7.16017576	     71.79405436	      1.25304263	    -32.78399183	     -6.85801904	      0.00000000
      0.06666667	    -11.63638599	     -5.64291394	     -7.95868136	      2.35394451	      0.91160037	      0.97714196	     36.54231231	     11.62593136	     -6.70000993	     26.58754256	      0.46404016	     -1.96360675	     -7.14907854	      0.00000000	     -8.35230220	     -3.69138334	     -7.88959778	     75.89153330	      1.32455713	    -32.91326367	     -8.37072846	      0.00000000
      0.07333333	    -11.44954549	     -5.78145721	     -8.30140219	      2.35202099	      0.90766579	      0.97745969	     36.41671416	     12.02229236	     -5.94699822	     30.32312196	      0.52923832	      0.46715568	     -9.17277977	      0.00000000	     -6.53445208	     -4.35856102	     -8.36984152	     79.86174549	      1.39385041	    -32.79352703	     -9.88905482	      0.00000000
      0.08000000	    -10.94924171	     -6.14782439	     -8.51585548	      2.35016803	      0.90437609	      0.97772743	     35.62257085	     12.59084216	     -5.19476302	     33.66345974	      0.58753821	      3.13852929	    -10.92107886	      0.00000000	     -5.01173550	     -5.35827454	     -8.75098570	     83.58726514	      1.45887299	    -32.23424277	    -11.13649297	      0.00000000
      0.08666667	    -11.17652159	     -5.89797880	     -8.66569548	      2.34771809	      0.90049714	      0.97795030	     35.56671343	     12.70099284	     -4.00187790	     36.91760953	      0.64433384	      5.79632181	    -12.42132406	      0.00000000	     -2.30691650	     -5.72860592	     -8.69690541	     87.25606732	      1.52290567	    -31.44864361	    -12.48213490	      0.00000000
      0.09333333	    -11.11291045	     -5.90516490	     -8.65380536	      2.34552708	      0.89758650	      0.97806179	     34.76017724	     12.92763281	     -3.04286902	     39.49055902	      0.68924028	      8.48785071	    -13.51075259	      0.00000000	      0.13182162	     -6.40328615	     -8.46531795	     90.57931307	      1.58090725	    -30.35899465	    -13.52283304	      0.00000000
      0.10000000	    -11.15611272	     -5.84279710	     -8.47935558	      2.34328562	      0.89517710	      0.97792675	     33.76954739	     12.97564530	     -2.20676765	     41.52176989	      0.72469160	     11.10128016	    -14.22007401	      0.00000000	      2.88626084	     -6.97043268	     -7.91177353	     93.62426846	      1.63405174	    -29.07007005	    -14.31412242	      0.00000000
      0.10666667	    -11.29668938	     -5.71266734	     -8.19480641	      2.34108841	      0.89334280	      0.97766048	     32.58419058	     12.83945687	     -1.55128858	     42.99556507	      0.75041417	     13.47523061	    -14.47717553	      0.00000000	      5.90758032	     -7.38889125	     -7.09661460	     96.33413110	      1.68134777	    -27.59649044	    -14.85106420	      0.00000000
